<svg width="28" height="28" viewBox="0 0 28 28" fill="none" xmlns="http://www.w3.org/2000/svg">
    <path fill-rule="evenodd" clip-rule="evenodd"
          d="M19 4C19 3.44772 18.5523 3 18 3C17.4477 3 17 3.44772 17 4V5H11V4C11 3.44772 10.5523 3 10 3C9.44772 3 9 3.44772 9 4V5H7C5.34315 5 4 6.34315 4 8V12V22C4 23.6569 5.34315 25 7 25H21C22.6569 25 24 23.6569 24 22V12V8C24 6.34315 22.6569 5 21 5H19V4ZM22 11V8C22 7.44772 21.5523 7 21 7H19V8C19 8.55228 18.5523 9 18 9C17.4477 9 17 8.55228 17 8V7H11V8C11 8.55228 10.5523 9 10 9C9.44772 9 9 8.55228 9 8V7H7C6.44772 7 6 7.44772 6 8V11H22ZM6 13H22V22C22 22.5523 21.5523 23 21 23H7C6.44772 23 6 22.5523 6 22V13Z"
          fill="#8CA0CF"/>
</svg>
