<svg fill="none" height="28" viewBox="0 0 28 28" width="28" xmlns="http://www.w3.org/2000/svg">
    <g clip-rule="evenodd" fill="#8ca0cf" fill-rule="evenodd">
        <path d="m14 4c-2.1217 0-4.15656.84285-5.65685 2.34315-1.5003 1.50029-2.34315 3.53512-2.34315 5.65685 0 3.0981 2.01574 6.1042 4.226 8.4373 1.0846 1.1449 2.1727 2.0822 2.9907 2.7335.3044.2425.5703.4444.7833.6018.213-.1574.4789-.3593.7833-.6018.818-.6513 1.9061-1.5886 2.9907-2.7335 2.2103-2.3331 4.226-5.3392 4.226-8.4373 0-2.12173-.8429-4.15656-2.3431-5.65685-1.5003-1.5003-3.5352-2.34315-5.6569-2.34315zm0 21c-.5547.8321-.555.8319-.5552.8317l-.0029-.0019-.0067-.0045-.0229-.0155c-.0195-.0132-.0472-.0322-.0827-.0568-.0711-.0492-.1731-.1209-.3018-.2138-.2573-.1858-.6214-.457-1.057-.8038-.8695-.6924-2.03141-1.6926-3.19675-2.9227-2.28979-2.4169-4.77405-5.9108-4.77405-9.8127 0-2.65216 1.05357-5.1957 2.92893-7.07107 1.87537-1.87536 4.41887-2.92893 7.07107-2.92893s5.1957 1.05357 7.0711 2.92893c1.8753 1.87537 2.9289 4.41891 2.9289 7.07107 0 3.9019-2.4843 7.3958-4.774 9.8127-1.1654 1.2301-2.3273 2.2303-3.1968 2.9227-.4356.3468-.7997.618-1.057.8038-.1287.0929-.2307.1646-.3018.2138-.0355.0246-.0632.0436-.0827.0568l-.0229.0155-.0067.0045-.0021.0014c-.0003.0002-.0013.0009-.556-.8312zm0 0 .5547.8321c-.3359.2239-.774.2235-1.1099-.0004z"/>
        <path d="m14 10c-1.1046 0-2 .8954-2 2s.8954 2 2 2 2-.8954 2-2-.8954-2-2-2zm-4 2c0-2.20914 1.7909-4 4-4s4 1.79086 4 4c0 2.2091-1.7909 4-4 4s-4-1.7909-4-4z"/>
    </g>
</svg>
