<svg width="28" height="28" viewBox="0 0 28 28" fill="none" xmlns="http://www.w3.org/2000/svg">
    <path fill-rule="evenodd" clip-rule="evenodd"
          d="M5 7C4.44772 7 4 7.44772 4 8C4 8.55228 4.44772 9 5 9H5.01C5.56228 9 6.01 8.55228 6.01 8C6.01 7.44772 5.56228 7 5.01 7H5ZM10 7C9.44772 7 9 7.44772 9 8C9 8.55228 9.44772 9 10 9H23C23.5523 9 24 8.55228 24 8C24 7.44772 23.5523 7 23 7H10ZM10 13C9.44772 13 9 13.4477 9 14C9 14.5523 9.44772 15 10 15H23C23.5523 15 24 14.5523 24 14C24 13.4477 23.5523 13 23 13H10ZM9 20C9 19.4477 9.44772 19 10 19H23C23.5523 19 24 19.4477 24 20C24 20.5523 23.5523 21 23 21H10C9.44772 21 9 20.5523 9 20ZM4 14C4 13.4477 4.44772 13 5 13H5.01C5.56228 13 6.01 13.4477 6.01 14C6.01 14.5523 5.56228 15 5.01 15H5C4.44772 15 4 14.5523 4 14ZM5 19C4.44772 19 4 19.4477 4 20C4 20.5523 4.44772 21 5 21H5.01C5.56228 21 6.01 20.5523 6.01 20C6.01 19.4477 5.56228 19 5.01 19H5Z"
          fill="#4C6BB6"/>
</svg>
