<svg width="174" height="30" viewBox="0 0 174 30" fill="none" xmlns="http://www.w3.org/2000/svg">
    <path d="M23.96 1.86C24.8213 1.86 25.524 2.14333 26.068 2.71C26.612 3.27667 26.884 4.01333 26.884 4.92V23.416C26.884 24.2773 26.6347 24.9573 26.136 25.456C25.6373 25.9547 24.98 26.204 24.164 26.204C23.3707 26.204 22.7133 25.9547 22.192 25.456C21.6933 24.9573 21.444 24.2773 21.444 23.416V13.42L17.568 20.56C17.1827 21.2853 16.7747 21.8067 16.344 22.124C15.9133 22.4187 15.4033 22.566 14.814 22.566C14.2247 22.566 13.7147 22.4187 13.284 22.124C12.8533 21.8067 12.4453 21.2853 12.06 20.56L8.218 13.624V23.416C8.218 24.2547 7.95733 24.9347 7.436 25.456C6.93733 25.9547 6.28 26.204 5.464 26.204C4.67067 26.204 4.01333 25.9547 3.492 25.456C2.99333 24.9573 2.744 24.2773 2.744 23.416V4.92C2.744 4.01333 3.016 3.27667 3.56 2.71C4.12667 2.14333 4.84067 1.86 5.702 1.86C6.314 1.86 6.86933 2.04133 7.368 2.404C7.86667 2.744 8.286 3.24267 8.626 3.9L14.882 15.664L21.104 3.9C21.8067 2.54 22.7587 1.86 23.96 1.86ZM35.8871 26C34.9578 26 34.2438 25.7507 33.7451 25.252C33.2464 24.7533 32.9971 24.0393 32.9971 23.11V4.92C32.9971 3.99067 33.2464 3.27667 33.7451 2.778C34.2438 2.27933 34.9578 2.03 35.8871 2.03H47.6511C48.6258 2.03 49.3624 2.234 49.8611 2.642C50.3598 3.05 50.6091 3.63933 50.6091 4.41C50.6091 6.042 49.6231 6.858 47.6511 6.858H39.0831V11.414H46.9711C48.9431 11.414 49.9291 12.2187 49.9291 13.828C49.9291 14.5987 49.6798 15.188 49.1811 15.596C48.6824 16.004 47.9458 16.208 46.9711 16.208H39.0831V21.172H47.6511C49.6231 21.172 50.6091 21.988 50.6091 23.62C50.6091 24.3907 50.3598 24.98 49.8611 25.388C49.3624 25.796 48.6258 26 47.6511 26H35.8871ZM57.8742 26C56.9449 26 56.2309 25.7507 55.7322 25.252C55.2335 24.7533 54.9842 24.0393 54.9842 23.11V4.92C54.9842 3.99067 55.2335 3.27667 55.7322 2.778C56.2309 2.27933 56.9449 2.03 57.8742 2.03H69.6382C70.6129 2.03 71.3495 2.234 71.8482 2.642C72.3469 3.05 72.5962 3.63933 72.5962 4.41C72.5962 6.042 71.6102 6.858 69.6382 6.858H61.0702V11.414H68.9582C70.9302 11.414 71.9162 12.2187 71.9162 13.828C71.9162 14.5987 71.6669 15.188 71.1682 15.596C70.6695 16.004 69.9329 16.208 68.9582 16.208H61.0702V21.172H69.6382C71.6102 21.172 72.5962 21.988 72.5962 23.62C72.5962 24.3907 72.3469 24.98 71.8482 25.388C71.3495 25.796 70.6129 26 69.6382 26H57.8742ZM86.0706 26.17C85.1186 26.17 84.3479 25.898 83.7586 25.354C83.1919 24.7873 82.9086 24.0393 82.9086 23.11V7.096H78.1146C77.1172 7.096 76.3692 6.892 75.8706 6.484C75.3946 6.05333 75.1566 5.40733 75.1566 4.546C75.1566 3.68467 75.3946 3.05 75.8706 2.642C76.3692 2.234 77.1172 2.03 78.1146 2.03H94.0266C95.0239 2.03 95.7606 2.234 96.2366 2.642C96.7352 3.05 96.9846 3.68467 96.9846 4.546C96.9846 5.40733 96.7352 6.05333 96.2366 6.484C95.7606 6.892 95.0239 7.096 94.0266 7.096H89.2326V23.11C89.2326 24.0393 88.9379 24.7873 88.3486 25.354C87.7819 25.898 87.0226 26.17 86.0706 26.17ZM111.157 26.306C107.689 26.306 105.048 25.422 103.235 23.654C101.444 21.886 100.549 19.302 100.549 15.902V4.92C100.549 3.99067 100.821 3.254 101.365 2.71C101.932 2.14333 102.68 1.86 103.609 1.86C104.538 1.86 105.275 2.14333 105.819 2.71C106.386 3.254 106.669 3.99067 106.669 4.92V16.14C106.669 17.8627 107.054 19.1887 107.825 20.118C108.596 21.0473 109.706 21.512 111.157 21.512C112.608 21.512 113.718 21.0473 114.489 20.118C115.26 19.1887 115.645 17.8627 115.645 16.14V4.92C115.645 3.99067 115.917 3.254 116.461 2.71C117.028 2.14333 117.776 1.86 118.705 1.86C119.634 1.86 120.382 2.14333 120.949 2.71C121.516 3.254 121.799 3.99067 121.799 4.92V15.902C121.799 19.2793 120.881 21.8633 119.045 23.654C117.232 25.422 114.602 26.306 111.157 26.306ZM130.813 26.204C129.861 26.204 129.102 25.932 128.535 25.388C127.991 24.8213 127.719 24.062 127.719 23.11V4.92C127.719 3.99067 127.968 3.27667 128.467 2.778C128.966 2.27933 129.68 2.03 130.609 2.03H139.313C141.965 2.03 144.028 2.71 145.501 4.07C146.974 5.40733 147.711 7.27733 147.711 9.68C147.711 12.06 146.963 13.93 145.467 15.29C143.994 16.65 141.942 17.33 139.313 17.33H133.975V23.11C133.975 24.062 133.692 24.8213 133.125 25.388C132.558 25.932 131.788 26.204 130.813 26.204ZM138.463 12.638C139.619 12.638 140.469 12.4 141.013 11.924C141.58 11.448 141.863 10.7113 141.863 9.714C141.863 7.742 140.73 6.756 138.463 6.756H133.975V12.638H138.463ZM161.439 26.306C159.625 26.306 157.937 26.1133 156.373 25.728C154.831 25.32 153.562 24.7647 152.565 24.062C152.179 23.7673 151.896 23.4613 151.715 23.144C151.556 22.8267 151.477 22.4187 151.477 21.92C151.477 21.24 151.681 20.6507 152.089 20.152C152.497 19.6533 152.973 19.404 153.517 19.404C153.811 19.404 154.095 19.4493 154.367 19.54C154.639 19.6307 154.979 19.8007 155.387 20.05C156.316 20.5713 157.234 20.9453 158.141 21.172C159.07 21.3987 160.113 21.512 161.269 21.512C162.606 21.512 163.615 21.3193 164.295 20.934C164.997 20.526 165.349 19.9367 165.349 19.166C165.349 18.6447 165.02 18.2027 164.363 17.84C163.728 17.4547 162.504 17.0807 160.691 16.718C158.447 16.242 156.69 15.6753 155.421 15.018C154.151 14.3607 153.256 13.59 152.735 12.706C152.236 11.7993 151.987 10.7113 151.987 9.442C151.987 7.99133 152.417 6.67667 153.279 5.498C154.14 4.31933 155.319 3.40133 156.815 2.744C158.333 2.064 160.033 1.724 161.915 1.724C163.569 1.724 165.043 1.90533 166.335 2.268C167.627 2.63067 168.805 3.19733 169.871 3.968C170.279 4.26267 170.562 4.58 170.721 4.92C170.902 5.23733 170.993 5.634 170.993 6.11C170.993 6.79 170.789 7.37933 170.381 7.878C169.995 8.37667 169.531 8.626 168.987 8.626C168.692 8.626 168.42 8.592 168.171 8.524C167.921 8.43333 167.57 8.252 167.117 7.98C167.003 7.912 166.675 7.742 166.131 7.47C165.609 7.17533 164.986 6.94867 164.261 6.79C163.558 6.60867 162.787 6.518 161.949 6.518C160.793 6.518 159.863 6.74467 159.161 7.198C158.458 7.62867 158.107 8.20667 158.107 8.932C158.107 9.36267 158.231 9.714 158.481 9.986C158.73 10.258 159.195 10.53 159.875 10.802C160.555 11.0513 161.563 11.312 162.901 11.584C165.077 12.06 166.788 12.638 168.035 13.318C169.281 13.9753 170.165 14.746 170.687 15.63C171.208 16.514 171.469 17.5567 171.469 18.758C171.469 20.254 171.049 21.58 170.211 22.736C169.372 23.8693 168.193 24.7533 166.675 25.388C165.179 26 163.433 26.306 161.439 26.306Z" fill="#34423F"/>
</svg>
