<svg width="28" height="28" viewBox="0 0 28 28" fill="none" xmlns="http://www.w3.org/2000/svg">
    <path fill-rule="evenodd" clip-rule="evenodd"
          d="M4 8C4 7.44772 4.44772 7 5 7H23C23.5523 7 24 7.44772 24 8C24 8.55228 23.5523 9 23 9H5C4.44772 9 4 8.55228 4 8Z"
          fill="#8CA0CF"/>
    <path fill-rule="evenodd" clip-rule="evenodd"
          d="M12 5C11.7348 5 11.4804 5.10536 11.2929 5.29289C11.1054 5.48043 11 5.73478 11 6V7H17V6C17 5.73478 16.8946 5.48043 16.7071 5.29289C16.5196 5.10536 16.2652 5 16 5H12ZM19 7V6C19 5.20435 18.6839 4.44129 18.1213 3.87868C17.5587 3.31607 16.7956 3 16 3H12C11.2044 3 10.4413 3.31607 9.87868 3.87868C9.31607 4.44129 9 5.20435 9 6V7H7C6.44772 7 6 7.44772 6 8V22C6 22.7957 6.31607 23.5587 6.87868 24.1213C7.44129 24.6839 8.20435 25 9 25H19C19.7957 25 20.5587 24.6839 21.1213 24.1213C21.6839 23.5587 22 22.7957 22 22V8C22 7.44772 21.5523 7 21 7H19ZM8 9V22C8 22.2652 8.10536 22.5196 8.29289 22.7071C8.48043 22.8946 8.73478 23 9 23H19C19.2652 23 19.5196 22.8946 19.7071 22.7071C19.8946 22.5196 20 22.2652 20 22V9H8Z"
          fill="#8CA0CF"/>
    <path fill-rule="evenodd" clip-rule="evenodd"
          d="M12 12C12.5523 12 13 12.4477 13 13V19C13 19.5523 12.5523 20 12 20C11.4477 20 11 19.5523 11 19V13C11 12.4477 11.4477 12 12 12Z"
          fill="#8CA0CF"/>
    <path fill-rule="evenodd" clip-rule="evenodd"
          d="M16 12C16.5523 12 17 12.4477 17 13V19C17 19.5523 16.5523 20 16 20C15.4477 20 15 19.5523 15 19V13C15 12.4477 15.4477 12 16 12Z"
          fill="#8CA0CF"/>
</svg>
